# xmcd
#
# Track frame offsets: 
#        150
#        9900
#        21520
#        31864
#        44066
#        57377
#        68803
#        78288
#        91198
#        102517
#        112690
#        123529
#        135884
#        147192
#        157254
#        169048
#        179756
#        190912
#        200371
#        210916
#
# Disc length: 2939 seconds
#
# Revision: 0
# Processed by: cddbd v1.5.2PL0 Copyright (c) Steve Scherf et al.
# Submitted via: ExactAudioCopyFreeDBPlugin 1.0
#
DISCID=100b7914
DTITLE=Hank Snow - Milestones Of A Country Legend
DYEAR=1900
DGENRE=Country
TTITLE0=Just Keep A-Movin´
TTITLE1=The Bill Is Falling Due
TTITLE2=Can´t Have You Blues
TTITLE3=A Scale to Measure Love
TTITLE4=The Owl and I
TTITLE5=I Can´t Control My Heart
TTITLE6=Cuba Rhumba
TTITLE7=Blossoms in the Springtime
TTITLE8=Caribbean
TTITLE9=Blue Sea Blues
TTITLE10=Chattin´with a Chick in Chattanooga
TTITLE11=Love´s a Game of Let´s Pretend
TTITLE12=Twelfth´s Street Rag
TTITLE13=Rainbow Boogie
TTITLE14=Vaya Can Dios
TTITLE15=Madison Madness
TTITLE16=Wabash Blue
TTITLE17=In an Old Dutch Garden (By an Old Dutch Mill)
TTITLE18=Hilo March
TTITLE19=Sweet Marie
EXTD=
EXTT0=
EXTT1=
EXTT2=
EXTT3=
EXTT4=
EXTT5=
EXTT6=
EXTT7=
EXTT8=
EXTT9=
EXTT10=
EXTT11=
EXTT12=
EXTT13=
EXTT14=
EXTT15=
EXTT16=
EXTT17=
EXTT18=
EXTT19=
PLAYORDER=
